<svg xmlns="http://www.w3.org/2000/svg" width="1200" height="620" viewBox="0 0 1200 620" role="img" aria-label="ESP32 reusable crates architecture">
  <defs>
    <linearGradient id="bg" x1="0" y1="0" x2="1" y2="1"><stop offset="0" stop-color="#020617"/><stop offset="1" stop-color="#0f172a"/></linearGradient>
    <marker id="arrow" markerWidth="10" markerHeight="10" refX="8" refY="3" orient="auto"><path d="M0,0 L0,6 L9,3 z" fill="#38bdf8"/></marker>
    <style>
      .title{font:700 28px ui-monospace, SFMono-Regular, Menlo, monospace;fill:#e2e8f0}.sub{font:13px ui-monospace,monospace;fill:#94a3b8}.box{rx:12;stroke-width:2}.label{font:700 15px ui-monospace,monospace;fill:#f8fafc}.small{font:11px ui-monospace,monospace;fill:#cbd5e1}.edge{stroke:#38bdf8;stroke-width:2;fill:none;marker-end:url(#arrow)}.dash{stroke-dasharray:7 5}.claim{font:12px ui-monospace,monospace;fill:#fde68a}
    </style>
  </defs>
  <rect width="1200" height="620" fill="url(#bg)"/>
  <path d="M0 60H1200M0 120H1200M0 180H1200M0 240H1200M0 300H1200M0 360H1200M0 420H1200M0 480H1200M0 540H1200M120 0V620M240 0V620M360 0V620M480 0V620M600 0V620M720 0V620M840 0V620M960 0V620M1080 0V620" stroke="#1e293b" stroke-width="1" opacity="0.7"/>
  <text x="40" y="48" class="title">RecursiveIntell ESP32 reusable crates</text>
  <text x="40" y="76" class="sub">deterministic policy → S3 local-language receipts → proof/tiered forwarding; no free-form policy brain</text>
  <path class="edge" d="M195 178 C250 178 278 178 330 178"/><path class="edge" d="M515 178 C570 178 598 178 650 178"/><path class="edge" d="M835 178 C890 178 918 178 970 178"/>
  <path class="edge dash" d="M720 280 C720 335 560 335 560 410"/>
  <path class="edge" d="M440 280 C440 330 260 330 260 410"/>
  <rect x="40" y="120" width="155" height="116" fill="#0f172a"/><rect class="box" x="40" y="120" width="155" height="116" fill="rgba(8,51,68,.55)" stroke="#22d3ee"/><text x="62" y="152" class="label">ri-esp-core</text><text x="62" y="180" class="small">EnvironmentReading</text><text x="62" y="202" class="small">display traits</text><text x="62" y="224" class="small">status enums</text>
  <rect x="330" y="120" width="185" height="116" fill="#0f172a"/><rect class="box" x="330" y="120" width="185" height="116" fill="rgba(6,78,59,.55)" stroke="#34d399"/><text x="352" y="152" class="label">ri-esp-policy</text><text x="352" y="180" class="small">sensor → PromptId</text><text x="352" y="202" class="small">stale/missing/hot</text><text x="352" y="224" class="small">safe cold/dry fallback</text>
  <rect x="650" y="120" width="185" height="116" fill="#0f172a"/><rect class="box" x="650" y="120" width="185" height="116" fill="rgba(76,29,149,.50)" stroke="#a78bfa"/><text x="672" y="152" class="label">local-language</text><text x="672" y="180" class="small">S3 p15 prompt table</text><text x="672" y="202" class="small">S3 receipt schema</text><text x="672" y="224" class="small">OLED-ready text</text>
  <rect x="970" y="120" width="185" height="116" fill="#0f172a"/><rect class="box" x="970" y="120" width="185" height="116" fill="rgba(120,53,15,.45)" stroke="#fbbf24"/><text x="992" y="152" class="label">ri-esp-proof</text><text x="992" y="180" class="small">route receipt</text><text x="992" y="202" class="small">local prompt fields</text><text x="992" y="224" class="small">FeatureTransfer</text>
  <rect x="140" y="410" width="210" height="110" fill="#0f172a"/><rect class="box" x="140" y="410" width="210" height="110" fill="rgba(30,41,59,.65)" stroke="#94a3b8"/><text x="162" y="442" class="label">C++ / Python apps</text><text x="162" y="470" class="small">sensor_receiver.py</text><text x="162" y="492" class="small">PlatformIO sensor hub</text>
  <rect x="475" y="410" width="220" height="110" fill="#0f172a"/><rect class="box" x="475" y="410" width="220" height="110" fill="rgba(136,19,55,.45)" stroke="#fb7185"/><text x="497" y="442" class="label">contract export</text><text x="497" y="470" class="small">generated JSON</text><text x="497" y="492" class="small">drift guard for host apps</text>
  <rect x="820" y="410" width="240" height="110" fill="#0f172a"/><rect class="box" x="820" y="410" width="240" height="110" fill="rgba(251,146,60,.35)" stroke="#fb923c"/><text x="842" y="442" class="label">S3 H320 p15 board</text><text x="842" y="470" class="small">PROMPT:&lt;canonical&gt;</text><text x="842" y="492" class="small">S3_LANGUAGE_RECEIPT</text>
  <text x="40" y="574" class="claim">Claim boundary: crates prove deterministic contracts and no_std compile; hardware OLED pixels require attached display verification.</text>
</svg>